<svg width="57" height="57" viewBox="0 0 57 57" fill="none" xmlns="http://www.w3.org/2000/svg">
<path d="M28.5 0L37.2252 7.43555L48.6525 8.34746L49.5645 19.7748L57 28.5L49.5645 37.2252L48.6525 48.6525L37.2252 49.5645L28.5 57L19.7748 49.5645L8.34746 48.6525L7.43555 37.2252L0 28.5L7.43555 19.7748L8.34746 8.34746L19.7748 7.43555L28.5 0Z" fill="#DDF4A6"/>
<path d="M15.9541 29.0776C15.9541 27.4367 16.2632 26.0455 16.8815 24.9041C17.5236 23.7864 18.3441 22.9421 19.3428 22.3714C20.3654 21.8007 21.4593 21.5153 22.6246 21.5153C23.9087 21.5153 25.0978 21.8245 26.1917 22.4428C27.2856 23.0848 28.2368 23.9172 29.0453 24.9397C29.6399 24.5117 30.2938 24.155 31.0073 23.8696C31.7445 23.608 32.6124 23.4772 33.6112 23.4772C34.9667 23.4772 36.1914 23.822 37.2853 24.5117C38.403 25.2013 39.2829 26.1763 39.925 27.4367C40.5909 28.7208 40.9238 30.219 40.9238 31.9312V42.9536L35.5018 42.0975V31.7885C35.5018 31.0038 35.2878 30.4093 34.8597 30.005C34.4554 29.6007 33.9561 29.3986 33.3615 29.3986C33.1475 29.3986 32.9335 29.4224 32.7195 29.4699C32.5292 29.5175 32.339 29.6007 32.1487 29.7196C32.6481 30.5995 32.9929 31.4675 33.1832 32.3236C33.3972 33.1797 33.5042 34.0715 33.5042 34.9989C33.5042 36.0928 33.314 37.056 32.9335 37.8883C32.5768 38.7206 32.0655 39.3746 31.3996 39.8502C30.7576 40.3496 29.9728 40.5993 29.0453 40.5993C27.8325 40.5993 26.8219 40.2901 26.0133 39.6718C25.2048 39.0773 24.5865 38.2926 24.1584 37.3175C23.7542 36.3425 23.552 35.2724 23.552 34.1072C23.552 33.4413 23.6115 32.7873 23.7304 32.1453C23.8493 31.527 24.0157 30.9443 24.2298 30.3974C24.4438 29.8742 24.6935 29.3986 24.9789 28.9705C24.6697 28.7327 24.3725 28.5663 24.0871 28.4711C23.8255 28.376 23.5401 28.3285 23.231 28.3285C22.8505 28.3285 22.5176 28.4117 22.2322 28.5782C21.9706 28.7684 21.7566 29.0419 21.5901 29.3986C21.4474 29.7553 21.3761 30.1952 21.3761 30.7184V39.8859L15.9541 39.0298V29.0776ZM27.5115 34.2855C27.5115 34.7849 27.6185 35.1654 27.8325 35.427C28.0466 35.7124 28.3081 35.855 28.6173 35.855C28.8789 35.855 29.081 35.7361 29.2237 35.4983C29.3902 35.2605 29.4734 34.9157 29.4734 34.4639C29.4734 33.9645 29.3902 33.477 29.2237 33.0014C29.0572 32.5495 28.8313 32.1215 28.546 31.7172C28.2368 32.0739 27.9871 32.4782 27.7969 32.93C27.6066 33.4056 27.5115 33.8575 27.5115 34.2855Z" fill="#123E23"/>
<path d="M23.9091 23.1531C22.9579 23.1531 22.1374 22.8202 21.4478 22.1544C20.7819 21.4647 20.449 20.6562 20.449 19.7287C20.449 18.7775 20.7819 17.969 21.4478 17.3031C22.1374 16.6135 22.9579 16.2687 23.9091 16.2687C24.8365 16.2687 25.6332 16.6135 26.299 17.3031C26.9887 17.969 27.3335 18.7775 27.3335 19.7287C27.3335 20.347 27.1789 20.9178 26.8698 21.4409C26.5606 21.9641 26.1445 22.3803 25.6213 22.6894C25.1219 22.9986 24.5512 23.1531 23.9091 23.1531Z" fill="#123E23"/>
<path d="M32.3552 22.9817C31.5625 22.9817 30.8789 22.7043 30.3042 22.1494C29.7493 21.5747 29.4718 20.9009 29.4718 20.128C29.4718 19.3353 29.7493 18.6616 30.3042 18.1067C30.8789 17.532 31.5625 17.2446 32.3552 17.2446C33.1281 17.2446 33.792 17.532 34.3469 18.1067C34.9216 18.6616 35.2089 19.3353 35.2089 20.128C35.2089 20.6433 35.0801 21.1189 34.8225 21.5549C34.5649 21.9908 34.2181 22.3377 33.7821 22.5953C33.3659 22.8529 32.8903 22.9817 32.3552 22.9817Z" fill="#123E23"/>
</svg>
