<svg width="27" height="27" viewBox="0 0 27 27" fill="none" xmlns="http://www.w3.org/2000/svg">
<path d="M13.5001 8.76684V14.1003M15.1616 2.11174L16.7896 3.4991C17.1997 3.84863 17.709 4.05994 18.2462 4.1028L20.3783 4.27273C21.6318 4.37276 22.6275 5.36782 22.7275 6.62135L22.897 8.75382C22.9399 9.29099 23.1519 9.80098 23.5015 10.2111L24.8882 11.8387C25.7038 12.7958 25.704 14.2037 24.8883 15.1608L23.5016 16.7886C23.1521 17.1987 22.9403 17.7089 22.8974 18.2461L22.7268 20.3782C22.6268 21.6317 21.6327 22.6274 20.3791 22.7275L18.2463 22.8976C17.7091 22.9405 17.1994 23.1513 16.7892 23.5008L15.1616 24.8882C14.2045 25.7038 12.7958 25.704 11.8386 24.8883L10.211 23.5009C9.80087 23.1514 9.29113 22.9402 8.75396 22.8974L6.62111 22.7275C5.36758 22.6274 4.37345 21.632 4.27342 20.3784L4.10284 18.2462C4.05998 17.7091 3.84819 17.1993 3.49867 16.7892L2.11193 15.1609C1.29628 14.2037 1.2959 12.7963 2.11154 11.8392L3.49953 10.2109C3.84906 9.80074 4.05881 9.29099 4.10167 8.75382L4.27225 6.62161C4.37228 5.36807 5.36928 4.37263 6.62281 4.2726L8.7533 4.10267C9.29047 4.0598 9.80046 3.84867 10.2106 3.49914L11.8388 2.11174C12.7959 1.29609 14.2045 1.29609 15.1616 2.11174ZM13.5665 18.1004V18.2337L13.4337 18.2332V18.1004H13.5665Z" stroke="#123E23" stroke-width="3" stroke-linecap="round" stroke-linejoin="round"/>
</svg>
