<svg width="21" height="21" viewBox="0 0 21 21" fill="none" xmlns="http://www.w3.org/2000/svg">
<path d="M12.6784 2.51882L11.4575 1.47832C10.7396 0.8666 9.68321 0.8666 8.96539 1.47832L7.74428 2.51885C7.43667 2.78099 7.05418 2.93934 6.65132 2.97149L5.05347 3.09893C4.11334 3.17395 3.3656 3.92052 3.29058 4.86065L3.16265 6.45977C3.1305 6.86264 2.97319 7.24494 2.71105 7.55254L1.67008 8.77373C1.05835 9.49156 1.05864 10.5471 1.67036 11.2649L2.7104 12.4861C2.97254 12.7937 3.13138 13.176 3.16353 13.5789L3.29146 15.178C3.36648 16.1182 4.11207 16.8647 5.0522 16.9397L6.65181 17.0672C7.05468 17.0993 7.43698 17.2577 7.74458 17.5198L8.96528 18.5604C9.68311 19.1721 10.7396 19.172 11.4575 18.5603L12.6782 17.5197C12.9858 17.2576 13.3681 17.0995 13.7709 17.0674L15.3706 16.9398C16.3107 16.8647 17.0563 16.118 17.1313 15.1778L17.2592 13.5788C17.2914 13.1759 17.4502 12.7933 17.7124 12.4857L18.7524 11.2649C19.3641 10.5471 19.364 9.49117 18.7523 8.77335L17.7123 7.55273C17.4501 7.24512 17.2911 6.86264 17.2589 6.45977L17.1318 4.86046C17.0568 3.92033 16.31 3.17405 15.3699 3.09903L13.7708 2.97159C13.368 2.93944 12.986 2.78096 12.6784 2.51882Z" fill="#FEF9C3"/>
<path d="M10.2114 6.46954V10.4695M11.4575 1.47832L12.6784 2.51882C12.986 2.78096 13.368 2.93944 13.7708 2.97159L15.3699 3.09903C16.31 3.17405 17.0568 3.92033 17.1318 4.86046L17.2589 6.45977C17.2911 6.86264 17.4501 7.24512 17.7123 7.55273L18.7523 8.77335C19.364 9.49117 19.3641 10.5471 18.7524 11.2649L17.7124 12.4857C17.4502 12.7933 17.2914 13.1759 17.2592 13.5788L17.1313 15.1778C17.0563 16.118 16.3107 16.8647 15.3706 16.9398L13.7709 17.0674C13.3681 17.0995 12.9858 17.2576 12.6782 17.5197L11.4575 18.5603C10.7396 19.172 9.68311 19.1721 8.96528 18.5604L7.74458 17.5198C7.43698 17.2577 7.05468 17.0993 6.65181 17.0672L5.0522 16.9397C4.11207 16.8647 3.36648 16.1182 3.29146 15.178L3.16353 13.5789C3.13138 13.176 2.97254 12.7937 2.7104 12.4861L1.67036 11.2649C1.05864 10.5471 1.05835 9.49156 1.67008 8.77373L2.71105 7.55254C2.97319 7.24494 3.1305 6.86264 3.16265 6.45977L3.29058 4.86065C3.3656 3.92052 4.11334 3.17395 5.05347 3.09893L6.65132 2.97149C7.05418 2.93934 7.43667 2.78099 7.74428 2.51885L8.96539 1.47832C9.68321 0.8666 10.7396 0.8666 11.4575 1.47832ZM10.2612 13.4695V13.5695L10.1616 13.5691V13.4695H10.2612Z" stroke="#123E23" stroke-width="2" stroke-linecap="round" stroke-linejoin="round"/>
</svg>
