<svg width="120" height="129" viewBox="0 0 120 129" fill="none" xmlns="http://www.w3.org/2000/svg">
<path d="M60 9L78.3688 24.6538L102.426 26.5736L104.346 50.6312L120 69L104.346 87.3688L102.426 111.426L78.3688 113.346L60 129L41.6312 113.346L17.5736 111.426L15.6538 87.3688L0 69L15.6538 50.6312L17.5736 26.5736L41.6312 24.6538L60 9Z" fill="#DDF4A6"/>
<path d="M33.9032 69.5576C33.9032 66.1032 34.5541 63.1744 35.8557 60.7713C37.2075 58.4183 38.9347 56.641 41.0374 55.4394C43.1902 54.2379 45.4932 53.6371 47.9463 53.6371C50.6498 53.6371 53.153 54.288 55.456 55.5896C57.759 56.9414 59.7616 58.6936 61.4637 60.8464C62.7154 59.9452 64.0921 59.1943 65.5941 58.5935C67.1461 58.0428 68.9734 57.7674 71.0761 57.7674C73.9298 57.7674 76.5081 58.4934 78.8111 59.9452C81.1641 61.3971 83.0165 63.4498 84.3683 66.1032C85.7701 68.8067 86.471 71.9607 86.471 75.5654V98.7703L75.0563 96.968V75.265C75.0563 73.6129 74.6057 72.3612 73.7045 71.5102C72.8534 70.6591 71.8021 70.2335 70.5505 70.2335C70.0999 70.2335 69.6493 70.2836 69.1987 70.3837C68.7982 70.4838 68.3977 70.6591 67.9972 70.9094C69.0485 72.7618 69.7745 74.5891 70.175 76.3914C70.6256 78.1938 70.8508 80.0712 70.8508 82.0237C70.8508 84.3267 70.4503 86.3543 69.6493 88.1065C68.8983 89.8588 67.8219 91.2356 66.4201 92.2369C65.0684 93.2882 63.4163 93.8139 61.4637 93.8139C58.9105 93.8139 56.7827 93.1631 55.0805 91.8614C53.3783 90.6098 52.0766 88.9576 51.1755 86.905C50.3244 84.8523 49.8988 82.5994 49.8988 80.1463C49.8988 78.7445 50.024 77.3677 50.2743 76.016C50.5246 74.7143 50.8751 73.4877 51.3257 72.3362C51.7763 71.2348 52.3019 70.2335 52.9027 69.3323C52.2519 68.8317 51.6261 68.4812 51.0253 68.281C50.4746 68.0807 49.8738 67.9806 49.223 67.9806C48.4219 67.9806 47.721 68.1558 47.1203 68.5063C46.5696 68.9068 46.119 69.4825 45.7685 70.2335C45.4681 70.9845 45.3179 71.9107 45.3179 73.0121V92.312L33.9032 90.5096V69.5576ZM58.2346 80.5218C58.2346 81.5731 58.4599 82.3742 58.9105 82.9249C59.361 83.5256 59.9117 83.826 60.5626 83.826C61.1133 83.826 61.5388 83.5757 61.8392 83.0751C62.1897 82.5744 62.3649 81.8485 62.3649 80.8973C62.3649 79.8459 62.1897 78.8196 61.8392 77.8183C61.4888 76.8671 61.0132 75.9659 60.4124 75.1148C59.7616 75.8658 59.2359 76.7169 58.8354 77.6681C58.4348 78.6694 58.2346 79.6206 58.2346 80.5218Z" fill="#123E23"/>
<path d="M50.3348 56.9012C48.3322 56.9012 46.605 56.2003 45.1531 54.7985C43.7513 53.3466 43.0504 51.6444 43.0504 49.6919C43.0504 47.6893 43.7513 45.9871 45.1531 44.5853C46.605 43.1334 48.3322 42.4075 50.3348 42.4075C52.2873 42.4075 53.9645 43.1334 55.3663 44.5853C56.8181 45.9871 57.5441 47.6893 57.5441 49.6919C57.5441 50.9935 57.2186 52.1951 56.5678 53.2965C55.917 54.3979 55.0408 55.2741 53.9394 55.9249C52.8881 56.5757 51.6865 56.9012 50.3348 56.9012Z" fill="#123E23"/>
<path d="M68.1163 56.751C66.4475 56.751 65.0082 56.1669 63.7983 54.9987C62.6301 53.7888 62.046 52.3703 62.046 50.7432C62.046 49.0744 62.6301 47.6559 63.7983 46.4877C65.0082 45.2778 66.4475 44.6729 68.1163 44.6729C69.7434 44.6729 71.1411 45.2778 72.3092 46.4877C73.5191 47.6559 74.1241 49.0744 74.1241 50.7432C74.1241 51.828 73.8529 52.8292 73.3105 53.7471C72.7682 54.6649 72.0381 55.3951 71.1202 55.9374C70.2441 56.4798 69.2428 56.751 68.1163 56.751Z" fill="#123E23"/>
</svg>
