<svg width="21" height="21" viewBox="0 0 21 21" fill="none" xmlns="http://www.w3.org/2000/svg">
<path d="M13.4314 3.16579L12.2104 2.1253C11.4926 1.51357 10.4361 1.51357 9.71832 2.1253L8.49721 3.16582C8.1896 3.42796 7.80711 3.58631 7.40425 3.61846L5.8064 3.7459C4.86627 3.82093 4.11853 4.56749 4.04351 5.50762L3.91558 7.10674C3.88343 7.50961 3.72612 7.89191 3.46398 8.19952L2.42301 9.42071C1.81128 10.1385 1.81157 11.1941 2.42329 11.9119L3.46333 13.1331C3.72547 13.4407 3.88431 13.823 3.91646 14.2259L4.04439 15.825C4.11941 16.7651 4.865 17.5117 5.80513 17.5867L7.40474 17.7142C7.80761 17.7463 8.18991 17.9047 8.49751 18.1668L9.71821 19.2074C10.436 19.8191 11.4926 19.819 12.2104 19.2072L13.4311 18.1667C13.7387 17.9046 14.121 17.7465 14.5239 17.7144L16.1235 17.5867C17.0636 17.5117 17.8092 16.765 17.8842 15.8248L18.0122 14.2258C18.0443 13.8229 18.2031 13.4403 18.4653 13.1327L19.5053 11.9119C20.117 11.194 20.1169 10.1381 19.5052 9.42032L18.4652 8.1997C18.2031 7.89209 18.044 7.50961 18.0119 7.10674L17.8847 5.50743C17.8097 4.5673 17.0629 3.82102 16.1228 3.746L14.5238 3.61856C14.1209 3.58641 13.739 3.42793 13.4314 3.16579Z" fill="#DDF4A6"/>
<path d="M10.9643 7.11651V11.1165M12.2104 2.1253L13.4314 3.16579C13.739 3.42793 14.1209 3.58641 14.5238 3.61856L16.1228 3.746C17.0629 3.82102 17.8097 4.5673 17.8847 5.50743L18.0119 7.10674C18.044 7.50961 18.2031 7.89209 18.4652 8.1997L19.5052 9.42032C20.1169 10.1381 20.117 11.194 19.5053 11.9119L18.4653 13.1327C18.2031 13.4403 18.0443 13.8229 18.0122 14.2258L17.8842 15.8248C17.8092 16.765 17.0636 17.5117 16.1235 17.5867L14.5239 17.7144C14.121 17.7465 13.7387 17.9046 13.4311 18.1667L12.2104 19.2072C11.4926 19.819 10.436 19.8191 9.71821 19.2074L8.49751 18.1668C8.18991 17.9047 7.80761 17.7463 7.40474 17.7142L5.80513 17.5867C4.865 17.5117 4.11941 16.7651 4.04439 15.825L3.91646 14.2259C3.88431 13.823 3.72547 13.4407 3.46333 13.1331L2.42329 11.9119C1.81157 11.1941 1.81128 10.1385 2.42301 9.42071L3.46398 8.19952C3.72612 7.89191 3.88343 7.50961 3.91558 7.10674L4.04351 5.50762C4.11853 4.56749 4.86627 3.82093 5.8064 3.7459L7.40425 3.61846C7.80711 3.58631 8.1896 3.42796 8.49721 3.16582L9.71832 2.1253C10.4361 1.51357 11.4926 1.51357 12.2104 2.1253ZM11.0141 14.1165V14.2165L10.9145 14.2161V14.1165H11.0141Z" stroke="#123E23" stroke-width="2" stroke-linecap="round" stroke-linejoin="round"/>
</svg>
