<svg width="21" height="21" viewBox="0 0 21 21" fill="none" xmlns="http://www.w3.org/2000/svg">
<path d="M13.4314 2.51882L12.2104 1.47832C11.4926 0.8666 10.4361 0.8666 9.71832 1.47832L8.49721 2.51885C8.1896 2.78099 7.80711 2.93934 7.40425 2.97149L5.8064 3.09893C4.86627 3.17395 4.11853 3.92052 4.04351 4.86065L3.91558 6.45977C3.88343 6.86264 3.72612 7.24494 3.46398 7.55254L2.42301 8.77373C1.81128 9.49156 1.81157 10.5471 2.42329 11.2649L3.46333 12.4861C3.72547 12.7937 3.88431 13.176 3.91646 13.5789L4.04439 15.178C4.11941 16.1182 4.865 16.8647 5.80513 16.9397L7.40474 17.0672C7.80761 17.0993 8.18991 17.2577 8.49751 17.5198L9.71821 18.5604C10.436 19.1721 11.4926 19.172 12.2104 18.5603L13.4311 17.5197C13.7387 17.2576 14.121 17.0995 14.5239 17.0674L16.1235 16.9398C17.0636 16.8647 17.8092 16.118 17.8842 15.1778L18.0122 13.5788C18.0443 13.1759 18.2031 12.7933 18.4653 12.4857L19.5053 11.2649C20.117 10.5471 20.1169 9.49117 19.5052 8.77335L18.4652 7.55273C18.2031 7.24512 18.044 6.86264 18.0119 6.45977L17.8847 4.86046C17.8097 3.92033 17.0629 3.17405 16.1228 3.09903L14.5238 2.97159C14.1209 2.93944 13.739 2.78096 13.4314 2.51882Z" fill="#FEE2E2"/>
<path d="M10.9643 6.46954V10.4695M12.2104 1.47832L13.4314 2.51882C13.739 2.78096 14.1209 2.93944 14.5238 2.97159L16.1228 3.09903C17.0629 3.17405 17.8097 3.92033 17.8847 4.86046L18.0119 6.45977C18.044 6.86264 18.2031 7.24512 18.4652 7.55273L19.5052 8.77335C20.1169 9.49117 20.117 10.5471 19.5053 11.2649L18.4653 12.4857C18.2031 12.7933 18.0443 13.1759 18.0122 13.5788L17.8842 15.1778C17.8092 16.118 17.0636 16.8647 16.1235 16.9398L14.5239 17.0674C14.121 17.0995 13.7387 17.2576 13.4311 17.5197L12.2104 18.5603C11.4926 19.172 10.436 19.1721 9.71821 18.5604L8.49751 17.5198C8.18991 17.2577 7.80761 17.0993 7.40474 17.0672L5.80513 16.9397C4.865 16.8647 4.11941 16.1182 4.04439 15.178L3.91646 13.5789C3.88431 13.176 3.72547 12.7937 3.46333 12.4861L2.42329 11.2649C1.81157 10.5471 1.81128 9.49156 2.42301 8.77373L3.46398 7.55254C3.72612 7.24494 3.88343 6.86264 3.91558 6.45977L4.04351 4.86065C4.11853 3.92052 4.86627 3.17395 5.8064 3.09893L7.40425 2.97149C7.80711 2.93934 8.1896 2.78099 8.49721 2.51885L9.71832 1.47832C10.4361 0.8666 11.4926 0.8666 12.2104 1.47832ZM11.0141 13.4695V13.5695L10.9145 13.5691V13.4695H11.0141Z" stroke="#123E23" stroke-width="2" stroke-linecap="round" stroke-linejoin="round"/>
</svg>
